<?xml version="1.0" standalone="no"?><!DOCTYPE svg PUBLIC "-//W3C//DTD SVG 1.1//EN" "http://www.w3.org/Graphics/SVG/1.1/DTD/svg11.dtd"><svg t="1527772182118" class="icon" style="" viewBox="0 0 1024 1024" version="1.1" xmlns="http://www.w3.org/2000/svg" p-id="2506" xmlns:xlink="http://www.w3.org/1999/xlink" width="200" height="200"><defs><style type="text/css"></style></defs><path d="M230.729728 793.761792h563.272704V230.381568H230.729728v563.380224z m76.836864-486.528h409.6v409.68192h-409.6v-409.68192z m-166.304768 25.56416c21.20192 0 38.34368-17.14176 38.34368-38.3488V179.247104h115.175424c21.20704 0 38.3488-17.14176 38.3488-38.35392s-17.14176-38.35392-38.3488-38.35392H141.261824c-21.21216 0-38.3488 17.14176-38.3488 38.35392v153.699328c-0.14336 21.06368 16.9984 38.20544 38.3488 38.20544z m153.520128 512.103424H179.606528V729.699328c0-21.21728-17.14176-38.35904-38.34368-38.35904-21.21216 0-38.3488 17.14176-38.3488 38.35904v153.550848c0 21.21216 17.13664 38.35392 38.3488 38.35392h153.668608c21.21216 0 38.3488-17.14176 38.3488-38.35392-0.149504-21.20704-17.291264-38.3488-38.498304-38.3488zM883.61472 102.39488H729.946112c-21.20192 0-38.34368 17.14176-38.34368 38.3488 0 21.21216 17.14176 38.35392 38.34368 38.35392h115.185664v115.206144c0 21.20704 17.13664 38.3488 38.34368 38.3488 21.20192 0 38.34368-17.14176 38.34368-38.3488v-153.55904c0.144384-21.20704-16.992256-38.349824-38.204416-38.349824z m0 588.945408c-21.20192 0-38.34368 17.14176-38.34368 38.35904v115.201024H730.094592c-21.21216 0-38.34368 17.14176-38.34368 38.3488 0 21.21216 17.13152 38.35392 38.34368 38.35392h153.673728c21.20192 0 38.34368-17.14176 38.34368-38.35392V729.699328c-0.14848-21.21728-17.28512-38.35904-38.49728-38.35904z m0 0" fill="#ffffff" p-id="2507"></path></svg>