<?xml version="1.0" standalone="no"?><!DOCTYPE svg PUBLIC "-//W3C//DTD SVG 1.1//EN" "http://www.w3.org/Graphics/SVG/1.1/DTD/svg11.dtd"><svg t="1527566168943" class="icon" style="" viewBox="0 0 1024 1024" version="1.1" xmlns="http://www.w3.org/2000/svg" p-id="7586" xmlns:xlink="http://www.w3.org/1999/xlink" width="200" height="200"><defs><style type="text/css"></style></defs><path d="M831.6032 682.7264c-9.8624 7.6736-13.1584 20.8384-8.768 32.9024 0 0 6.0224 16.4352 4.384 35.6352-1.6448 23.5776-12.608 39.4752-35.0848 49.888-8.7744 3.84-14.8032 12.6144-16.448 21.9392 0 0-3.2896 18.6368-12.608 36.7232-11.52 20.8384-27.4176 35.0976-37.8304 36.1856 0-1.6384-58.6688-2.7392-84.9856-4.928-51.5392-3.84-99.7824-21.9392-150.7776-30.7136-31.2512-5.472-63.0528-10.4128-94.304-14.8032-27.9616-3.84-55.9232-7.6736-84.4352-10.4128-24.128-2.2016-48.7936-2.752-72.9152-4.3904l-5.4848 0c-7.6736 2.1888-13.7024-1.1008-16.9984-8.224-5.4784-10.9632-10.9632-22.4768-14.8032-34.5344-12.064-38.3872-18.6432-77.8624-23.5776-117.888-3.84-29.6-6.5792-59.7632-4.9344-89.3632 0.5504-11.5136 2.2016-23.0336 4.3904-34.5408 1.1008-7.1296 6.0352-10.9696 13.7152-12.6144 31.2512-5.4784 62.5024-11.5072 93.2032-17.5488 13.7152-2.7456 26.8672-6.5728 40.0256-10.4128 19.7376-5.4848 36.736-15.904 50.9952-30.7072 26.3168-27.4176 52.0896-54.8288 78.4-82.7904 13.7152-14.8032 27.4176-29.6064 41.1264-44.96 19.1872-21.3824 42.2208-38.9312 65.7984-55.9232 30.1568-21.9264 57.0176-47.6992 78.4-78.9504 12.064-17.5424 20.8384-36.1856 30.1568-55.3728 2.1952-5.4848 4.9344-10.4128 8.224-15.3472 7.6736-12.6144 15.904-15.8976 30.1568-12.064 15.3472 4.3904 25.216 15.3536 31.8016 29.0624 9.8688 20.8384 10.9632 42.2208 9.3184 64.6976-2.1952 22.4768-10.9632 42.7648-20.288 62.5088-14.2528 30.7008-29.6064 61.408-40.5696 93.2032-2.1952 6.5792-3.84 13.1584-4.9344 20.288-1.6448 13.7024 4.3904 23.5776 16.9984 29.6064 10.9632 5.4784 23.0272 7.68 35.0848 9.3248 23.0336 3.8336 46.6048 7.1296 70.1824 11.5136 5.4784 1.1008 19.7376 3.2896 28.512 8.7744 9.3184 6.0224 13.1584 15.3472 14.2528 18.6368 9.8688 22.4832 6.5792 45.5104-10.4192 69.6384-6.5728 9.3184-6.5728 21.9328-1.0944 31.2512C835.9872 580.7488 875.4624 647.0848 831.6032 682.7264L831.6032 682.7264 831.6032 682.7264zM831.6032 682.7264" p-id="7587" fill="#ffffff"></path></svg>